<?xml version="1.0" encoding="UTF-8"?>
<svg xmlns="http://www.w3.org/2000/svg" width="72px" height="72px" viewBox="0 0 72 72" version="1.1">
  <path d="M 52.122 1.307 C 49.121 1.064, 46.349 1.519, 44.218 2.606 C 42.413 3.527, 39.991 5.609, 38.835 7.232 C 37.679 8.855, 36.517 12.103, 36.253 14.450 C 35.932 17.291, 36.352 19.940, 37.509 22.378 C 38.465 24.392, 40.582 26.990, 42.215 28.153 C 43.847 29.315, 47.103 30.483, 49.450 30.747 C 52.291 31.068, 54.940 30.648, 57.378 29.491 C 59.392 28.535, 61.990 26.418, 63.153 24.785 C 64.315 23.153, 65.483 19.897, 65.747 17.550 C 66.068 14.709, 65.648 12.060, 64.491 9.622 C 63.535 7.608, 61.401 4.998, 59.749 3.821 C 58.061 2.619, 54.719 1.518, 52.122 1.307 M 52.500 2.481 C 49.686 2.077, 47.483 2.440, 45.071 3.703 C 43.185 4.692, 40.743 6.726, 39.645 8.225 C 38.321 10.030, 37.622 12.620, 37.574 15.900 C 37.521 19.409, 38.101 21.672, 39.565 23.675 C 40.700 25.229, 43.291 27.326, 45.323 28.336 C 48.104 29.719, 50.059 29.997, 53.235 29.460 C 55.997 28.994, 58.538 27.662, 60.600 25.600 C 62.662 23.538, 63.994 20.997, 64.460 18.235 C 64.997 15.059, 64.719 13.104, 63.336 10.323 C 62.326 8.291, 60.375 5.825, 59 4.842 C 57.625 3.860, 54.700 2.797, 52.500 2.481 M 22.122 10.307 C 19.121 10.064, 16.349 10.519, 14.218 11.606 C 12.413 12.527, 9.991 14.609, 8.835 16.232 C 7.679 17.855, 6.517 21.103, 6.253 23.450 C 5.932 26.291, 6.352 28.940, 7.509 31.378 C 8.465 33.392, 10.582 35.990, 12.215 37.153 C 13.847 38.315, 17.103 39.483, 19.450 39.747 C 22.291 40.068, 24.940 39.648, 27.378 38.491 C 29.392 37.535, 31.990 35.418, 33.153 33.785 C 34.315 32.153, 35.483 28.897, 35.747 26.550 C 36.068 23.709, 35.648 21.060, 34.491 18.622 C 33.535 16.608, 31.401 13.998, 29.749 12.821 C 28.061 11.619, 24.719 10.518, 22.122 10.307 M 22.203 11.385 C 20.166 11.159, 17.103 11.605, 15.396 12.377 C 13.689 13.149, 11.357 15.095, 10.213 16.701 C 9.069 18.308, 7.844 20.772, 7.492 22.177 C 7.139 23.582, 7.343 26.559, 7.944 28.793 C 8.564 31.093, 10.299 33.915, 11.947 35.302 C 13.548 36.649, 16.492 38.057, 18.491 38.432 C 20.506 38.810, 23.641 38.614, 25.530 37.990 C 27.402 37.372, 30.032 35.562, 31.374 33.968 C 32.715 32.374, 34.110 29.311, 34.473 27.162 C 34.902 24.623, 34.624 22.035, 33.680 19.776 C 32.880 17.863, 30.804 15.285, 29.066 14.047 C 27.328 12.810, 24.240 11.612, 22.203 11.385 M 52.122 32.307 C 49.121 32.064, 46.349 32.519, 44.218 33.606 C 42.413 34.527, 39.991 36.609, 38.835 38.232 C 37.679 39.855, 36.517 43.103, 36.253 45.450 C 35.932 48.291, 36.352 50.940, 37.509 53.378 C 38.465 55.392, 40.582 57.990, 42.215 59.153 C 43.847 60.315, 47.103 61.483, 49.450 61.747 C 52.291 62.068, 54.940 61.648, 57.378 60.491 C 59.392 59.535, 61.990 57.418, 63.153 55.785 C 64.315 54.153, 65.483 50.897, 65.747 48.550 C 66.068 45.709, 65.648 43.060, 64.491 40.622 C 63.535 38.608, 61.401 35.998, 59.749 34.821 C 58.061 33.619, 54.719 32.518, 52.122 32.307 M 53 33.607 C 51.075 33.333, 48.204 33.512, 46.619 34.003 C 45.035 34.495, 42.665 35.906, 41.352 37.139 C 40.040 38.371, 38.481 41, 37.888 42.980 C 37.110 45.577, 37.120 47.730, 37.924 50.717 C 38.577 53.142, 40.283 55.902, 42.048 57.387 C 43.704 58.780, 46.591 60.208, 48.464 60.559 C 50.337 60.911, 53.459 60.674, 55.402 60.032 C 57.345 59.391, 60.032 57.562, 61.374 55.968 C 62.715 54.374, 64.119 51.258, 64.493 49.043 C 64.993 46.080, 64.688 44.042, 63.336 41.323 C 62.326 39.291, 60.375 36.836, 59 35.866 C 57.625 34.897, 54.925 33.880, 53 33.607 M 22.122 41.307 C 19.121 41.064, 16.349 41.519, 14.218 42.606 C 12.413 43.527, 9.991 45.609, 8.835 47.232 C 7.679 48.855, 6.517 52.103, 6.253 54.450 C 5.932 57.291, 6.352 59.940, 7.509 62.378 C 8.465 64.392, 10.582 66.990, 12.215 68.153 C 13.847 69.315, 17.103 70.483, 19.450 70.747 C 22.291 71.068, 24.940 70.648, 27.378 69.491 C 29.392 68.535, 31.990 66.418, 33.153 64.785 C 34.315 63.153, 35.483 59.897, 35.747 57.550 C 36.068 54.709, 35.648 52.060, 34.491 49.622 C 33.535 47.608, 31.401 44.998, 29.749 43.821 C 28.061 42.619, 24.719 41.518, 22.122 41.307 M 22.500 42.504 C 19.659 42.080, 17.507 42.427, 15.071 43.703 C 13.185 44.692, 10.736 46.736, 9.629 48.246 C 8.260 50.112, 7.615 52.557, 7.615 55.878 C 7.615 58.800, 8.301 61.811, 9.322 63.368 C 10.260 64.800, 12.129 66.694, 13.476 67.576 C 14.822 68.458, 17.628 69.388, 19.712 69.642 C 22.194 69.945, 24.682 69.483, 26.929 68.302 C 28.815 67.311, 31.264 65.264, 32.371 63.754 C 33.740 61.888, 34.385 59.443, 34.385 56.122 C 34.385 53.200, 33.699 50.189, 32.678 48.632 C 31.740 47.200, 29.966 45.369, 28.736 44.564 C 27.506 43.760, 24.700 42.832, 22.500 42.504 " fill="#000" fill-rule="evenodd"/>  <path id="btn1" stroke="#000" fill="#000" d="M24.656 39.047 L28.484 37.438 30.703 35.766 32.641 33.641 34.594 30.047 35.484 24.969 35.031 21.328 33.422 17.5 30.75 14.297 27.281 11.938 22.828 10.625 18.422 10.734 16.016 11.375 13.469 12.609 10.281 15.25 7.891 18.781 6.953 21.344 6.531 23.891 6.953 28.688 8.563 32.5 10.234 34.719 12.359 36.656 16 38.641 20.594 39.5 Z"/>
  <path id="btn3" stroke="#000" fill="#000" d="M25.969 69.641 L28.516 68.406 31.719 65.75 33.391 63.531 34.594 61.031 35.484 56 34.594 50.969 32.641 47.375 30.719 45.266 28.484 43.578 24.672 41.969 19.875 41.547 17.328 41.969 14.703 42.938 12.359 44.359 10.234 46.297 8.594 48.484 7.375 50.984 6.516 56 7.375 61.031 9.344 64.641 11.281 66.766 13.469 68.406 16.016 69.641 18.406 70.281 23.578 70.281 Z"/>
  <path id="btn4" stroke="#000" fill="#000" d="M52.813 61.391 L57.313 60.063 59.625 58.656 61.75 56.719 63.391 54.531 64.594 52.031 65.484 46.969 65.031 43.344 64.063 40.719 62.641 38.375 60.719 36.266 58.516 34.609 56.016 33.406 51 32.516 45.969 33.406 43.469 34.609 41.266 36.266 39.344 38.375 37.922 40.719 36.953 43.344 36.531 45.891 36.953 50.688 38.563 54.5 40.234 56.719 42.359 58.656 44.703 60.078 47.328 61.047 49.906 61.469 Z"/>
</svg>
