<?xml version="1.0" encoding="UTF-8"?>
<svg xmlns="http://www.w3.org/2000/svg" width="360px" height="72px" viewBox="0 0 360 72" version="1.1">
  <g transform="rotate(180 36 36)">
    <path fill="#fff" d="M34.7 58.4 C36.6 58.4 38.2 56.8 38.2 54.9 L38.2 46.4 60.3 46.4 C62.2 46.4 63.8 44.8 63.8 42.9 L63.8 29 C63.8 27.1 62.2 25.5 60.3 25.5 L38.1 25.5 38.1 17 C38.1 15.1 36.5 13.5 34.6 13.5 33.8 13.5 33.1 13.8 32.5 14.3 L10.3 31.9 C9.1 32.9 8.3 34.4 8.3 36 8.3 37.6 9 39.1 10.3 40.1 L32.6 57.7 C33.1 58.1 33.9 58.4 34.7 58.4 Z"/>
    <path fill="#000" d="M34.7 14.6 C34.2 14.6 33.6 14.8 33.2 15.1 L10.9 32.7 C8.8 34.4 8.8 37.6 10.9 39.2 L33.2 56.8 C33.7 57.2 34.2 57.3 34.7 57.3 36 57.3 37.2 56.3 37.2 54.8 L37.2 45.5 60.3 45.5 C61.7 45.5 62.8 44.4 62.8 43 L62.8 29 C62.8 27.6 61.7 26.5 60.3 26.5 L37.1 26.5 37.1 17 C37.1 15.6 35.9 14.6 34.7 14.6 M34.7 12.6 C37.2 12.6 39.2 14.6 39.2 17.1 L39.2 24.6 60.3 24.6 C62.8 24.6 64.8 26.6 64.8 29.1 L64.8 43 C64.8 45.5 62.8 47.5 60.3 47.5 L39.1 47.5 39.1 55 C39.1 57.5 37.1 59.5 34.6 59.5 33.6 59.5 32.6 59.2 31.8 58.5 L9.6 40.8 C8.1 39.6 7.3 37.9 7.3 36 7.3 34.1 8.2 32.3 9.6 31.2 L31.9 13.6 C32.7 12.9 33.7 12.6 34.7 12.6 Z"/>
    <path fill="#000" d="M33 53.1 C33.2 53.1 33.5 53 33.7 52.9 34.3 52.6 34.6 52 34.6 51.4 L34.6 43 57.9 43 C59.2 43 60.2 42 60.2 40.7 L60.2 31.3 C60.2 30 59.2 29 57.9 29 L34.6 29 34.6 20.5 C34.6 19.9 34.2 19.3 33.7 19 33.1 18.7 32.4 18.8 31.9 19.2 L12.4 34.7 C11.8 35.1 11.8 35.7 11.8 36 11.8 36.3 11.9 36.9 12.4 37.3 L31.9 52.7 C32.2 53 32.6 53.1 33 53.1 Z M57.9 30 C58.6 30 59.2 30.6 59.2 31.3 L59.2 40.7 C59.2 41.4 58.6 42 57.9 42 L33.6 42 33.6 51.5 C33.6 51.8 33.5 52 33.2 52.1 33 52.2 32.7 52.2 32.5 52 L13.1 36.5 C12.9 36.3 12.8 36.1 12.8 36 12.8 35.9 12.8 35.6 13.1 35.5 L32.6 20.1 C32.8 19.9 33.1 19.9 33.3 20 33.5 20.1 33.7 20.3 33.7 20.6 L33.7 30 Z"/>
  </g>
  <g transform="translate(72 0)">
    <g transform="rotate(225 36 36)">
      <path fill="#fff" d="M34.7 58.4 C36.6 58.4 38.2 56.8 38.2 54.9 L38.2 46.4 60.3 46.4 C62.2 46.4 63.8 44.8 63.8 42.9 L63.8 29 C63.8 27.1 62.2 25.5 60.3 25.5 L38.1 25.5 38.1 17 C38.1 15.1 36.5 13.5 34.6 13.5 33.8 13.5 33.1 13.8 32.5 14.3 L10.3 31.9 C9.1 32.9 8.3 34.4 8.3 36 8.3 37.6 9 39.1 10.3 40.1 L32.6 57.7 C33.1 58.1 33.9 58.4 34.7 58.4 Z"/>
      <path fill="#000" d="M34.7 14.6 C34.2 14.6 33.6 14.8 33.2 15.1 L10.9 32.7 C8.8 34.4 8.8 37.6 10.9 39.2 L33.2 56.8 C33.7 57.2 34.2 57.3 34.7 57.3 36 57.3 37.2 56.3 37.2 54.8 L37.2 45.5 60.3 45.5 C61.7 45.5 62.8 44.4 62.8 43 L62.8 29 C62.8 27.6 61.7 26.5 60.3 26.5 L37.1 26.5 37.1 17 C37.1 15.6 35.9 14.6 34.7 14.6 M34.7 12.6 C37.2 12.6 39.2 14.6 39.2 17.1 L39.2 24.6 60.3 24.6 C62.8 24.6 64.8 26.6 64.8 29.1 L64.8 43 C64.8 45.5 62.8 47.5 60.3 47.5 L39.1 47.5 39.1 55 C39.1 57.5 37.1 59.5 34.6 59.5 33.6 59.5 32.6 59.2 31.8 58.5 L9.6 40.8 C8.1 39.6 7.3 37.9 7.3 36 7.3 34.1 8.2 32.3 9.6 31.2 L31.9 13.6 C32.7 12.9 33.7 12.6 34.7 12.6 Z"/>
      <path fill="#000" d="M33 53.1 C33.2 53.1 33.5 53 33.7 52.9 34.3 52.6 34.6 52 34.6 51.4 L34.6 43 57.9 43 C59.2 43 60.2 42 60.2 40.7 L60.2 31.3 C60.2 30 59.2 29 57.9 29 L34.6 29 34.6 20.5 C34.6 19.9 34.2 19.3 33.7 19 33.1 18.7 32.4 18.8 31.9 19.2 L12.4 34.7 C11.8 35.1 11.8 35.7 11.8 36 11.8 36.3 11.9 36.9 12.4 37.3 L31.9 52.7 C32.2 53 32.6 53.1 33 53.1 Z M57.9 30 C58.6 30 59.2 30.6 59.2 31.3 L59.2 40.7 C59.2 41.4 58.6 42 57.9 42 L33.6 42 33.6 51.5 C33.6 51.8 33.5 52 33.2 52.1 33 52.2 32.7 52.2 32.5 52 L13.1 36.5 C12.9 36.3 12.8 36.1 12.8 36 12.8 35.9 12.8 35.6 13.1 35.5 L32.6 20.1 C32.8 19.9 33.1 19.9 33.3 20 33.5 20.1 33.7 20.3 33.7 20.6 L33.7 30 Z"/>
    </g>
  </g>
  <g transform="translate(144 0)">
    <g transform="rotate(270 36 36)">
      <path fill="#fff" d="M34.7 58.4 C36.6 58.4 38.2 56.8 38.2 54.9 L38.2 46.4 60.3 46.4 C62.2 46.4 63.8 44.8 63.8 42.9 L63.8 29 C63.8 27.1 62.2 25.5 60.3 25.5 L38.1 25.5 38.1 17 C38.1 15.1 36.5 13.5 34.6 13.5 33.8 13.5 33.1 13.8 32.5 14.3 L10.3 31.9 C9.1 32.9 8.3 34.4 8.3 36 8.3 37.6 9 39.1 10.3 40.1 L32.6 57.7 C33.1 58.1 33.9 58.4 34.7 58.4 Z"/>
      <path fill="#000" d="M34.7 14.6 C34.2 14.6 33.6 14.8 33.2 15.1 L10.9 32.7 C8.8 34.4 8.8 37.6 10.9 39.2 L33.2 56.8 C33.7 57.2 34.2 57.3 34.7 57.3 36 57.3 37.2 56.3 37.2 54.8 L37.2 45.5 60.3 45.5 C61.7 45.5 62.8 44.4 62.8 43 L62.8 29 C62.8 27.6 61.7 26.5 60.3 26.5 L37.1 26.5 37.1 17 C37.1 15.6 35.9 14.6 34.7 14.6 M34.7 12.6 C37.2 12.6 39.2 14.6 39.2 17.1 L39.2 24.6 60.3 24.6 C62.8 24.6 64.8 26.6 64.8 29.1 L64.8 43 C64.8 45.5 62.8 47.5 60.3 47.5 L39.1 47.5 39.1 55 C39.1 57.5 37.1 59.5 34.6 59.5 33.6 59.5 32.6 59.2 31.8 58.5 L9.6 40.8 C8.1 39.6 7.3 37.9 7.3 36 7.3 34.1 8.2 32.3 9.6 31.2 L31.9 13.6 C32.7 12.9 33.7 12.6 34.7 12.6 Z"/>
      <path fill="#000" d="M33 53.1 C33.2 53.1 33.5 53 33.7 52.9 34.3 52.6 34.6 52 34.6 51.4 L34.6 43 57.9 43 C59.2 43 60.2 42 60.2 40.7 L60.2 31.3 C60.2 30 59.2 29 57.9 29 L34.6 29 34.6 20.5 C34.6 19.9 34.2 19.3 33.7 19 33.1 18.7 32.4 18.8 31.9 19.2 L12.4 34.7 C11.8 35.1 11.8 35.7 11.8 36 11.8 36.3 11.9 36.9 12.4 37.3 L31.9 52.7 C32.2 53 32.6 53.1 33 53.1 Z M57.9 30 C58.6 30 59.2 30.6 59.2 31.3 L59.2 40.7 C59.2 41.4 58.6 42 57.9 42 L33.6 42 33.6 51.5 C33.6 51.8 33.5 52 33.2 52.1 33 52.2 32.7 52.2 32.5 52 L13.1 36.5 C12.9 36.3 12.8 36.1 12.8 36 12.8 35.9 12.8 35.6 13.1 35.5 L32.6 20.1 C32.8 19.9 33.1 19.9 33.3 20 33.5 20.1 33.7 20.3 33.7 20.6 L33.7 30 Z"/>
    </g>
  </g>
  <g transform="translate(216 0)">
    <g transform="rotate(-45 36 36)">
      <path fill="#fff" d="M34.7 58.4 C36.6 58.4 38.2 56.8 38.2 54.9 L38.2 46.4 60.3 46.4 C62.2 46.4 63.8 44.8 63.8 42.9 L63.8 29 C63.8 27.1 62.2 25.5 60.3 25.5 L38.1 25.5 38.1 17 C38.1 15.1 36.5 13.5 34.6 13.5 33.8 13.5 33.1 13.8 32.5 14.3 L10.3 31.9 C9.1 32.9 8.3 34.4 8.3 36 8.3 37.6 9 39.1 10.3 40.1 L32.6 57.7 C33.1 58.1 33.9 58.4 34.7 58.4 Z"/>
      <path fill="#000" d="M34.7 14.6 C34.2 14.6 33.6 14.8 33.2 15.1 L10.9 32.7 C8.8 34.4 8.8 37.6 10.9 39.2 L33.2 56.8 C33.7 57.2 34.2 57.3 34.7 57.3 36 57.3 37.2 56.3 37.2 54.8 L37.2 45.5 60.3 45.5 C61.7 45.5 62.8 44.4 62.8 43 L62.8 29 C62.8 27.6 61.7 26.5 60.3 26.5 L37.1 26.5 37.1 17 C37.1 15.6 35.9 14.6 34.7 14.6 M34.7 12.6 C37.2 12.6 39.2 14.6 39.2 17.1 L39.2 24.6 60.3 24.6 C62.8 24.6 64.8 26.6 64.8 29.1 L64.8 43 C64.8 45.5 62.8 47.5 60.3 47.5 L39.1 47.5 39.1 55 C39.1 57.5 37.1 59.5 34.6 59.5 33.6 59.5 32.6 59.2 31.8 58.5 L9.6 40.8 C8.1 39.6 7.3 37.9 7.3 36 7.3 34.1 8.2 32.3 9.6 31.2 L31.9 13.6 C32.7 12.9 33.7 12.6 34.7 12.6 Z"/>
      <path fill="#000" d="M33 53.1 C33.2 53.1 33.5 53 33.7 52.9 34.3 52.6 34.6 52 34.6 51.4 L34.6 43 57.9 43 C59.2 43 60.2 42 60.2 40.7 L60.2 31.3 C60.2 30 59.2 29 57.9 29 L34.6 29 34.6 20.5 C34.6 19.9 34.2 19.3 33.7 19 33.1 18.7 32.4 18.8 31.9 19.2 L12.4 34.7 C11.8 35.1 11.8 35.7 11.8 36 11.8 36.3 11.9 36.9 12.4 37.3 L31.9 52.7 C32.2 53 32.6 53.1 33 53.1 Z M57.9 30 C58.6 30 59.2 30.6 59.2 31.3 L59.2 40.7 C59.2 41.4 58.6 42 57.9 42 L33.6 42 33.6 51.5 C33.6 51.8 33.5 52 33.2 52.1 33 52.2 32.7 52.2 32.5 52 L13.1 36.5 C12.9 36.3 12.8 36.1 12.8 36 12.8 35.9 12.8 35.6 13.1 35.5 L32.6 20.1 C32.8 19.9 33.1 19.9 33.3 20 33.5 20.1 33.7 20.3 33.7 20.6 L33.7 30 Z"/>
    </g>
  </g>
  <g transform="translate(288 0)">
    <g transform="rotate(0 36 36)">
      <path fill="#fff" d="M34.7 58.4 C36.6 58.4 38.2 56.8 38.2 54.9 L38.2 46.4 60.3 46.4 C62.2 46.4 63.8 44.8 63.8 42.9 L63.8 29 C63.8 27.1 62.2 25.5 60.3 25.5 L38.1 25.5 38.1 17 C38.1 15.1 36.5 13.5 34.6 13.5 33.8 13.5 33.1 13.8 32.5 14.3 L10.3 31.9 C9.1 32.9 8.3 34.4 8.3 36 8.3 37.6 9 39.1 10.3 40.1 L32.6 57.7 C33.1 58.1 33.9 58.4 34.7 58.4 Z"/>
      <path fill="#000" d="M34.7 14.6 C34.2 14.6 33.6 14.8 33.2 15.1 L10.9 32.7 C8.8 34.4 8.8 37.6 10.9 39.2 L33.2 56.8 C33.7 57.2 34.2 57.3 34.7 57.3 36 57.3 37.2 56.3 37.2 54.8 L37.2 45.5 60.3 45.5 C61.7 45.5 62.8 44.4 62.8 43 L62.8 29 C62.8 27.6 61.7 26.5 60.3 26.5 L37.1 26.5 37.1 17 C37.1 15.6 35.9 14.6 34.7 14.6 M34.7 12.6 C37.2 12.6 39.2 14.6 39.2 17.1 L39.2 24.6 60.3 24.6 C62.8 24.6 64.8 26.6 64.8 29.1 L64.8 43 C64.8 45.5 62.8 47.5 60.3 47.5 L39.1 47.5 39.1 55 C39.1 57.5 37.1 59.5 34.6 59.5 33.6 59.5 32.6 59.2 31.8 58.5 L9.6 40.8 C8.1 39.6 7.3 37.9 7.3 36 7.3 34.1 8.2 32.3 9.6 31.2 L31.9 13.6 C32.7 12.9 33.7 12.6 34.7 12.6 Z"/>
      <path fill="#000" d="M33 53.1 C33.2 53.1 33.5 53 33.7 52.9 34.3 52.6 34.6 52 34.6 51.4 L34.6 43 57.9 43 C59.2 43 60.2 42 60.2 40.7 L60.2 31.3 C60.2 30 59.2 29 57.9 29 L34.6 29 34.6 20.5 C34.6 19.9 34.2 19.3 33.7 19 33.1 18.7 32.4 18.8 31.9 19.2 L12.4 34.7 C11.8 35.1 11.8 35.7 11.8 36 11.8 36.3 11.9 36.9 12.4 37.3 L31.9 52.7 C32.2 53 32.6 53.1 33 53.1 Z M57.9 30 C58.6 30 59.2 30.6 59.2 31.3 L59.2 40.7 C59.2 41.4 58.6 42 57.9 42 L33.6 42 33.6 51.5 C33.6 51.8 33.5 52 33.2 52.1 33 52.2 32.7 52.2 32.5 52 L13.1 36.5 C12.9 36.3 12.8 36.1 12.8 36 12.8 35.9 12.8 35.6 13.1 35.5 L32.6 20.1 C32.8 19.9 33.1 19.9 33.3 20 33.5 20.1 33.7 20.3 33.7 20.6 L33.7 30 Z"/>
    </g>
  </g>
</svg>
