<?xml version="1.0" encoding="UTF-8"?>

<svg width="72px" height="72px" viewBox="0 0 72 72" xmlns="http://www.w3.org/2000/svg" version="1.1">
    <g transform="matrix(1 0 0 -1 36 36)">
        <path fill="#fff" d="M9.5-16.5c-0.3,0-0.5,0.1-0.8,0.2L0-11.7c-0.1,0-0.1,0-0.2,0c-0.1,0-0.1,0-0.2,0L-9-16.2
            c-0.2-0.1-0.5-0.2-0.8-0.2c-0.5,0-1,0.2-1.3,0.6c-0.3,0.4-0.4,0.9-0.4,1.4l1.7,9.7c0,0.1,0,0.2-0.1,0.3l-7,6.9
            c-0.5,0.4-0.6,1.1-0.4,1.7c0.2,0.6,0.7,1,1.3,1.1l9.8,1.3c0.1,0,0.2,0.1,0.3,0.2l4.4,8.8c0.3,0.6,0.9,0.9,1.5,0.9
            c0.6,0,1.2-0.4,1.5-0.9l4.3-8.9c0-0.1,0.1-0.2,0.3-0.2l9.7-1.5C16.5,5,17,4.5,17.2,3.9c0.2-0.6,0-1.3-0.4-1.7L9.7-4.6
            C9.6-4.7,9.5-4.8,9.6-4.9l1.6-9.7c0.1-0.5-0.1-1-0.4-1.3C10.5-16.3,10-16.5,9.5-16.5z"/>

        <path d="M0.1,15.9c0.4,0,0.7-0.2,0.9-0.6l4.3-8.9C5.4,6.2,5.7,6,6,5.9l9.7-1.5c0.8-0.1,1.1-1.1,0.5-1.7
            L9.2-4.1C9-4.3,8.9-4.7,8.9-5l1.6-9.7c0.1-0.6-0.4-1.2-1-1.2c-0.2,0-0.3,0-0.5,0.1l-8.7,4.6C0.2-11,0-11-0.1-11
            c-0.2,0-0.3,0-0.5-0.1l-8.8-4.5c-0.2-0.1-0.3-0.1-0.5-0.1c-0.6,0-1.1,0.5-1,1.2L-9-4.9C-9-4.5-9.1-4.2-9.3-4l-7,6.9
            c-0.6,0.6-0.3,1.6,0.6,1.7L-6,6c0.3,0,0.6,0.2,0.8,0.5l4.4,8.8C-0.6,15.7-0.3,15.9,0.1,15.9 M0.1,17.2L0.1,17.2
            c-0.9,0-1.7-0.5-2.1-1.3l-4.4-8.7L-15.9,6c-0.9-0.1-1.6-0.7-1.9-1.6c-0.3-0.8-0.1-1.8,0.6-2.4l6.9-6.8l-1.7-9.5
            c-0.1-0.7,0.1-1.4,0.5-1.9c0.4-0.5,1.1-0.8,1.8-0.8c0.4,0,0.7,0.1,1.1,0.3l8.6,4.4l8.5-4.6c0.3-0.2,0.7-0.3,1.1-0.3
            c0.7,0,1.3,0.3,1.8,0.8c0.4,0.5,0.6,1.2,0.5,1.9L10.2-5l7,6.7c0.6,0.6,0.9,1.5,0.6,2.4c-0.3,0.8-1,1.5-1.9,1.6L6.4,7.2
            l-4.2,8.7C1.8,16.7,1,17.2,0.1,17.2L0.1,17.2z"/>

        <path fill="#fff" d="M1.6-8.8C1.1-8.5,0.5-8.4-0.1-8.4c-0.6,0-1.2-0.1-1.7-0.4L-6.1-11
            c-0.6-0.3-1.3,0.2-1.2,0.9l0.8,4.4c0.3,1.4-0.2,2.9-1.2,3.9L-11,1.3c-0.5,0.5-0.2,1.3,0.5,1.4l4.9,0.7c1.2,0.2,2.2,0.9,2.7,2
            l2.2,4.4c0.3,0.6,1.2,0.6,1.5,0l2.1-4.4c0.5-1.1,1.5-1.8,2.7-2l4.8-0.7c0.7-0.1,0.9-0.9,0.4-1.4L7.4-2.2
            c-0.9-0.8-1.3-2-1.1-3.2l0.8-4.8c0.1-0.7-0.6-1.2-1.2-0.9L1.6-8.8z"/>

        <path d="M6.3-11.5c-0.2,0-0.4,0-0.5,0.1L1.4-9.1c-0.9,0.5-2.1,0.5-3.1,0L-6-11.3c-0.4-0.2-0.9-0.2-1.2,0.1
            c-0.4,0.3-0.5,0.7-0.4,1.1l0.8,4.4C-6.6-4.4-7-3-8-2l-3.2,3.1c-0.3,0.3-0.4,0.8-0.3,1.2S-11,3-10.5,3.1l4.9,0.7
            c1.1,0.2,2,0.8,2.5,1.8L-1,9.9c0.2,0.4,0.6,0.7,1,0.6c0.4,0,0.8-0.3,1-0.6l2.1-4.4c0.5-1,1.4-1.7,2.5-1.8l4.8-0.7
            c0.4-0.1,0.8-0.4,0.9-0.8c0.1-0.4,0-0.9-0.3-1.2L7.6-2.5c-0.8-0.8-1.1-1.8-1-2.9l0.8-4.8c0.1-0.4-0.1-0.9-0.5-1.1
            C6.8-11.5,6.5-11.5,6.3-11.5z M-0.1-8c0.6,0,1.3-0.2,1.9-0.5l4.3-2.3c0.2-0.1,0.4-0.1,0.5,0c0.2,0.1,0.2,0.3,0.2,0.5L6-5.5
            C5.8-4.2,6.2-2.9,7.2-2l3.5,3.4c0.1,0.1,0.2,0.3,0.1,0.5c-0.1,0.2-0.2,0.3-0.4,0.3L5.6,3c-1.3,0.2-2.4,1-3,2.2L0.5,9.6
            C0.4,9.8,0.2,9.9,0,9.9c-0.2,0-0.4-0.1-0.4-0.3l-2.2-4.4c-0.6-1.2-1.7-2-3-2.1l-4.9-0.7c-0.2,0-0.3-0.2-0.4-0.3
            c-0.1-0.2,0-0.4,0.1-0.5l3.2-3.1c1.1-1.1,1.6-2.7,1.3-4.2L-7-10.2c0-0.2,0-0.4,0.2-0.5c0.2-0.1,0.3-0.1,0.5,0l4.3,2.2
            C-1.4-8.2-0.7-8-0.1-8z"/>
    </g>
</svg>
