<?xml version="1.0" encoding="UTF-8"?>
<svg xmlns="http://www.w3.org/2000/svg" xmlns:xlink="http://www.w3.org/1999/xlink" width="72px" height="72px" viewBox="0 0 72 72" version="1.1">
  <!-- Generated by Pixelmator Pro 1.5.4 -->
  <g id="Nouveau_symbole_2">
    <defs>
      <path id="Ellipse" d="M36 25 C36 16.716 29.284 10 21 10 12.716 10 6 16.716 6 25 6 33.284 12.716 40 21 40 29.284 40 36 33.284 36 25 Z"/>
    </defs>
    <defs>
      <path id="stroke-path" d="M24.656 39.047 L28.484 37.438 30.703 35.766 32.641 33.641 34.594 30.047 35.484 24.969 35.031 21.328 33.422 17.5 30.75 14.297 27.281 11.938 22.828 10.625 18.422 10.734 16.016 11.375 13.469 12.609 10.281 15.25 7.891 18.781 6.953 21.344 6.531 23.891 6.953 28.688 8.563 32.5 10.234 34.719 12.359 36.656 16 38.641 20.594 39.5 Z"/>
    </defs>
    <use id="Ellipse-1" stroke="#000000" stroke-opacity="1" stroke-linecap="round" fill="none" stroke-width="1" xlink:href="#stroke-path"/>
    <defs>
      <path id="Ellipse-2" d="M66 16 C66 7.716 59.284 1 51 1 42.716 1 36 7.716 36 16 36 24.284 42.716 31 51 31 59.284 31 66 24.284 66 16 Z"/>
    </defs>
    <defs>
      <path id="stroke-path-1" d="M54.672 30.047 L58.484 28.438 60.703 26.766 62.641 24.641 64.594 21.047 65.484 15.969 65.031 12.344 64.063 9.719 62.641 7.375 60.719 5.266 58.516 3.609 55.969 2.375 51.375 1.516 48.422 1.734 46 2.375 42.344 4.359 40.234 6.297 38.563 8.516 36.953 12.328 36.531 17.125 36.953 19.688 37.891 22.234 40.266 25.75 42.359 27.656 44.703 29.078 47.328 30.047 49.875 30.469 Z"/>
    </defs>
    <use id="Ellipse-3" stroke="#000000" stroke-opacity="1" stroke-linecap="round" fill="none" stroke-width="1" xlink:href="#stroke-path-1"/>
    <defs>
      <path id="Ellipse-4" d="M36 56 C36 47.716 29.284 41 21 41 12.716 41 6 47.716 6 56 6 64.284 12.716 71 21 71 29.284 71 36 64.284 36 56 Z"/>
    </defs>
    <defs>
      <path id="stroke-path-2" d="M25.969 69.641 L28.516 68.406 31.719 65.75 33.391 63.531 34.594 61.031 35.484 56 34.594 50.969 32.641 47.375 30.719 45.266 28.484 43.578 24.672 41.969 19.875 41.547 17.328 41.969 14.703 42.938 12.359 44.359 10.234 46.297 8.594 48.484 7.375 50.984 6.516 56 7.375 61.031 9.344 64.641 11.281 66.766 13.469 68.406 16.016 69.641 18.406 70.281 23.578 70.281 Z"/>
    </defs>
    <use id="Ellipse-5" stroke="#000000" stroke-opacity="1" stroke-linecap="round" fill="none" stroke-width="1" xlink:href="#stroke-path-2"/>
    <defs>
      <path id="Path" d="M66 47 C66 38.716 59.284 32 51 32 42.716 32 36 38.716 36 47 36 55.284 42.716 62 51 62 59.284 62 66 55.284 66 47 Z"/>
    </defs>
    <defs>
      <path id="stroke-path-3" d="M52.813 61.391 L57.313 60.063 59.625 58.656 61.75 56.719 63.391 54.531 64.594 52.031 65.484 46.969 65.031 43.344 64.063 40.719 62.641 38.375 60.719 36.266 58.516 34.609 56.016 33.406 51 32.516 45.969 33.406 43.469 34.609 41.266 36.266 39.344 38.375 37.922 40.719 36.953 43.344 36.531 45.891 36.953 50.688 38.563 54.5 40.234 56.719 42.359 58.656 44.703 60.078 47.328 61.047 49.906 61.469 Z"/>
    </defs>
    <use id="Path-1" stroke="#000000" stroke-opacity="1" stroke-linecap="round" fill="none" stroke-width="1" xlink:href="#stroke-path-3"/>
  </g>
</svg>
