<?xml version="1.0" encoding="UTF-8"?>
<svg xmlns="http://www.w3.org/2000/svg" width="72px" height="72px" viewBox="0 0 72 72" version="1.1">
  <g>
    <path id="btn1" stroke="#000" fill="#000" d="M24.656 39.047 L28.484 37.438 30.703 35.766 32.641 33.641 34.594 30.047 35.484 24.969 35.031 21.328 33.422 17.5 30.75 14.297 27.281 11.938 22.828 10.625 18.422 10.734 16.016 11.375 13.469 12.609 10.281 15.25 7.891 18.781 6.953 21.344 6.531 23.891 6.953 28.688 8.563 32.5 10.234 34.719 12.359 36.656 16 38.641 20.594 39.5 Z"/>
    <path id="btn2" stroke="#000" fill="#000" d="M54.672 30.047 L58.484 28.438 60.703 26.766 62.641 24.641 64.594 21.047 65.484 15.969 65.031 12.344 64.063 9.719 62.641 7.375 60.719 5.266 58.516 3.609 55.969 2.375 51.375 1.516 48.422 1.734 46 2.375 42.344 4.359 40.234 6.297 38.563 8.516 36.953 12.328 36.531 17.125 36.953 19.688 37.891 22.234 40.266 25.75 42.359 27.656 44.703 29.078 47.328 30.047 49.875 30.469 Z"/>
    <path id="btn3" stroke="#000" fill="#000" d="M25.969 69.641 L28.516 68.406 31.719 65.75 33.391 63.531 34.594 61.031 35.484 56 34.594 50.969 32.641 47.375 30.719 45.266 28.484 43.578 24.672 41.969 19.875 41.547 17.328 41.969 14.703 42.938 12.359 44.359 10.234 46.297 8.594 48.484 7.375 50.984 6.516 56 7.375 61.031 9.344 64.641 11.281 66.766 13.469 68.406 16.016 69.641 18.406 70.281 23.578 70.281 Z"/>
    <path id="btn4" stroke="#000" fill="none" d="M52.813 61.391 L57.313 60.063 59.625 58.656 61.75 56.719 63.391 54.531 64.594 52.031 65.484 46.969 65.031 43.344 64.063 40.719 62.641 38.375 60.719 36.266 58.516 34.609 56.016 33.406 51 32.516 45.969 33.406 43.469 34.609 41.266 36.266 39.344 38.375 37.922 40.719 36.953 43.344 36.531 45.891 36.953 50.688 38.563 54.5 40.234 56.719 42.359 58.656 44.703 60.078 47.328 61.047 49.906 61.469 Z"/>
  </g>
</svg>
