<?xml version="1.0"?>
<svg xmlns="http://www.w3.org/2000/svg" xmlns:xlink="http://www.w3.org/1999/xlink" version="1.1" id="Calque_1" x="0" y="0" viewBox="0 0 72 72" xml:space="preserve"><style>.st1{display:none}.st2{display:inline}.st3{fill:#333}.st4,.st5{display:inline}.st4{fill:none;stroke:#ff66fa}.st5{fill:#427db8}</style>
    <switch><g><symbol id="Nouveau_symbole" viewBox="-17.5 -17.5 35 35"><path id="XMLID_215_" d="M0 15.7c8.7 0 15.7-7.1 15.7-15.7S8.7-15.7 0-15.7-15.7-8.7-15.7 0s7 15.7 15.7 15.7m0 1.8c-9.6 0-17.5-7.9-17.5-17.5S-9.6-17.5 0-17.5 17.5-9.6 17.5 0 9.6 17.5 0 17.5z"/><radialGradient id="XMLID_327_" cx="-7.5" cy="9.375" r="34.124" gradientUnits="userSpaceOnUse"><stop offset="0" stop-color="#db2727"/>
        <stop offset="1" stop-color="#a81e1e"/></radialGradient><path id="XMLID_214_" d="M0 15.7c-8.7 0-15.7-7.1-15.7-15.7s7-15.7 15.7-15.7S15.7-8.7 15.7 0 8.7 15.7 0 15.7z" fill="url(#XMLID_327_)"/><g id="Calque_3_2_" class="st1"><g id="XMLID_211_" class="st2"><path id="XMLID_23_" class="st3" d="M7.5 0c0-4.2-3.4-7.5-7.5-7.5S-7.5-4.2-7.5 0-4.2 7.5 0 7.5 7.5 4.2 7.5 0z"/></g>
        <path id="XMLID_209_" class="st4" d="M4-4h-8v8h8z"/></g><g id="XMLID_187_" class="st1"><path id="XMLID_21_" class="st5" d="M7.5 0c0-4.2-3.4-7.5-7.5-7.5S-7.5-4.2-7.5 0-4.2 7.5 0 7.5 7.5 4.2 7.5 0z"/></g><path id="XMLID_181_" d="M-14.6-2.2c0 9.1 7.4 16.5 16.5 16.5 2.2 0 4.4-.5 6.4-1.3-2.3 1.4-5 2.2-7.9 2.2-8.5 0-15.5-7-15.5-15.5 0-1.7.3-3.4.8-5-.2 1-.3 2-.3 3.1z" opacity=".33" fill="#fff"/></symbol><symbol id="Nouveau_symbole_15" viewBox="-36 -36 72 72"><g id="XMLID_324_"><path id="XMLID_416_" d="M-1.3 22.4c1.9 0 3.5-1.6 3.5-3.5v-8.5h22.1c1.9 0 3.5-1.6 3.5-3.5V-7c0-1.9-1.6-3.5-3.5-3.5H2.1V-19c0-1.9-1.6-3.5-3.5-3.5-.8 0-1.5.3-2.1.8L-25.7-4.1c-1.2 1-2 2.5-2 4.1 0 1.6.7 3.1 2 4.1l22.3 17.6c.5.4 1.3.7 2.1.7z"/><path id="XMLID_376_" d="M-1.3-21.4c-.5 0-1.1.2-1.5.5L-25.1-3.3c-2.1 1.7-2.1 4.9 0 6.5l22.3 17.6c.5.4 1 .5 1.5.5 1.3 0 2.5-1 2.5-2.5V9.5h23.1c1.4 0 2.5-1.1 2.5-2.5V-7c0-1.4-1.1-2.5-2.5-2.5H1.1V-19c0-1.4-1.2-2.4-2.4-2.4m0-2c2.5 0 4.5 2 4.5 4.5v7.5h21.1c2.5 0 4.5 2 4.5 4.5V7c0 2.5-2 4.5-4.5 4.5H3.1V19c0 2.5-2 4.5-4.5 4.5-1 0-2-.3-2.8-1L-26.4 4.8c-1.5-1.2-2.3-2.9-2.3-4.8s.9-3.7 2.3-4.8l22.3-17.6c.8-.7 1.8-1 2.8-1z"/><path id="XMLID_375_" d="M-1.9 6.5h23.8c1 0 1.8-.8 1.8-1.8v-9.4c0-1-.8-1.8-1.8-1.8H-1.9v-9c0-1-1.1-1.5-1.9-.9L-23.3-.9c-.4.3-.4.7-.4.9 0 .2.1.6.4.9l19.5 15.4c.8.6 1.9.1 1.9-.9V6.5z"/><path id="XMLID_325_" d="M-3 17.1c.2 0 .5-.1.7-.2.6-.3.9-.9.9-1.5V7h23.3c1.3 0 2.3-1 2.3-2.3v-9.4c0-1.3-1-2.3-2.3-2.3H-1.4v-8.5c0-.6-.4-1.2-.9-1.5-.6-.3-1.3-.2-1.8.2L-23.6-1.3c-.6.4-.6 1-.6 1.3s.1.9.6 1.3l19.5 15.4c.3.3.7.4 1.1.4zM21.9-6c.7 0 1.3.6 1.3 1.3v9.4c0 .7-.6 1.3-1.3 1.3H-2.4v9.5c0 .3-.1.5-.4.6-.2.1-.5.1-.7-.1L-22.9.5c-.2-.2-.3-.4-.3-.5s0-.4.3-.5l19.5-15.4c.2-.2.5-.2.7-.1.2.1.4.3.4.6V-6h24.2z" fill="#fff"/></g></symbol><symbol id="Nouveau_symbole_3" viewBox="-17.5 -17.5 35 35"><path id="XMLID_163_" d="M0-15.7c-8.7 0-15.7 7.1-15.7 15.7s7 15.7 15.7 15.7S15.7 8.7 15.7 0 8.7-15.7 0-15.7m0-1.8c9.6 0 17.5 7.9 17.5 17.5S9.6 17.5 0 17.5-17.5 9.6-17.5 0-9.6-17.5 0-17.5z"/>
        <path id="XMLID_162_" d="M0-15.7c8.7 0 15.7 7.1 15.7 15.7S8.7 15.7 0 15.7-15.7 8.7-15.7 0s7-15.7 15.7-15.7z" fill="#e8e8e8"/>
        <g id="Calque_3_4_" class="st1"><g id="XMLID_159_" class="st2"><path id="XMLID_19_" class="st3" d="M7.5 0c0-4.2-3.4-7.5-7.5-7.5S-7.5-4.2-7.5 0-4.2 7.5 0 7.5 7.5 4.2 7.5 0z"/></g>
            <path id="XMLID_155_" class="st4" d="M4-4h-8v8h8z"/></g>
        <g id="XMLID_97_" class="st1"><path id="XMLID_17_" class="st5" d="M7.5 0c0-4.2-3.4-7.5-7.5-7.5S-7.5-4.2-7.5 0-4.2 7.5 0 7.5 7.5 4.2 7.5 0z"/></g>
        <path id="XMLID_46_" d="M14.6 2.2c0-9.1-7.4-16.5-16.5-16.5-2.2 0-4.4.5-6.4 1.3 2.3-1.4 5-2.2 7.9-2.2 8.5 0 15.5 7 15.5 15.5 0 1.7-.3 3.4-.8 5 .2-1 .3-2 .3-3.1z" opacity=".33" fill="#696969"/></symbol><use xlink:href="#Nouveau_symbole_15" width="72" height="72" id="XMLID_233_" x="-36" y="-36" transform="matrix(1 0 0 -1 36 36)" overflow="visible"/></g></switch></svg>
