<?xml version="1.0" encoding="UTF-8"?>
<svg width="72px" height="72px" viewBox="0 0 72 72" xmlns="http://www.w3.org/2000/svg" version="1.1">
    <path fill="#000000" fill-opacity="1" stroke="none"
          d="M21 56 C9.954 56 1 47.046 1 36 1 24.955 9.954 16 21 16 L51 16 C62.045 16 71 24.955 71 36 71 47.046 62.045 56 51 56 L21 56 Z M36.135 44.408 C38.018 44.408 39.439 43.738 40.398 42.398 41 41.568 41.337 40.689 41.408 39.758 L38.283 39.758 C38.219 40.374 38.035 40.875 37.734 41.262 37.433 41.649 36.925 41.84 36.209 41.84 35.199 41.84 34.512 41.353 34.146 40.379 33.946 39.856 33.846 39.166 33.846 38.307 33.846 37.404 33.946 36.681 34.146 36.137 34.526 35.113 35.232 34.602 36.264 34.602 36.987 34.602 37.519 34.836 37.863 35.309 38.099 35.66 38.247 36.056 38.305 36.492 L41.441 36.492 C41.269 34.824 40.716 33.659 39.781 33 38.847 32.341 37.646 32.012 36.178 32.012 34.452 32.012 33.098 32.57 32.117 33.688 31.136 34.805 30.645 36.371 30.645 38.383 30.645 40.166 31.089 41.615 31.977 42.732 32.864 43.85 34.251 44.408 36.135 44.408 Z M49.906 44.313 C51.446 44.313 52.644 43.714 53.504 42.518 54.363 41.322 54.793 39.815 54.793 37.996 54.793 36.242 54.358 34.809 53.488 33.699 52.618 32.589 51.413 32.033 49.873 32.033 49.021 32.033 48.319 32.212 47.768 32.57 47.302 32.857 46.877 33.272 46.49 33.816 L46.49 28.188 43.439 28.188 43.439 44 46.436 44 46.436 42.527 C46.844 43.1 47.223 43.501 47.574 43.73 48.161 44.117 48.939 44.313 49.906 44.313 Z M17.895 44 L20.945 44 20.945 37.662 C20.945 36.66 21.155 35.888 21.574 35.348 21.993 34.807 22.607 34.535 23.416 34.535 24.196 34.535 24.726 34.807 25.006 35.352 25.221 35.738 25.328 36.249 25.328 36.879 L25.328 44 28.453 44 28.453 37.125 C28.453 36.08 28.417 35.325 28.346 34.863 28.274 34.401 28.078 33.953 27.756 33.516 27.376 33 26.891 32.618 26.301 32.367 25.71 32.117 25.051 31.99 24.328 31.99 23.683 31.99 23.07 32.124 22.486 32.393 21.903 32.661 21.389 33.136 20.945 33.816 L20.945 28.219 17.895 28.219 17.895 44 Z M49.09 41.787 C48.18 41.787 47.502 41.458 47.059 40.799 46.615 40.14 46.393 39.309 46.393 38.307 46.393 37.455 46.5 36.76 46.715 36.223 47.13 35.213 47.894 34.707 49.004 34.707 50.099 34.707 50.851 35.223 51.26 36.254 51.474 36.798 51.582 37.486 51.582 38.316 51.582 39.355 51.362 40.195 50.926 40.832 50.489 41.469 49.877 41.787 49.09 41.787 Z"/>

    <path stroke="#000000" stroke-opacity="1" stroke-linecap="round" fill="none" stroke-width="1"
          d="M19.469 16.563 L14.797 17.516 9.641 20.156 7.531 21.891 5.141 24.672 2.5 29.828 1.797 32.547 1.5 36 1.797 39.5 2.5 42.188 5.141 47.359 7.531 50.125 9.641 51.859 14.797 54.5 17.531 55.203 21.047 55.5 52.516 55.453 57.188 54.5 62.344 51.859 65.094 49.469 67.453 46.469 69.125 43.203 70.188 39.469 70.203 39.422 70.203 39.406 70.484 35.547 69.984 31.547 68.797 28.031 66.906 24.75 63.719 21.25 60.656 19.063 56.375 17.266 52.438 16.563 Z M47.547 44.328 L46.922 43.719 46.922 44.5 42.938 44.5 42.938 27.688 46.984 27.688 46.984 32.688 47.734 32 49.859 31.531 52.375 32.109 54.078 33.641 55.25 36.984 54.859 40.953 52.906 43.891 49.938 44.828 Z M17.391 44.5 L17.391 27.719 21.438 27.719 21.438 32.625 22.016 32.047 24.594 31.484 26.766 32.016 28.531 33.781 28.938 36.344 28.953 44.5 24.828 44.5 24.781 36.344 24.234 35.281 23.422 35.078 22.094 35.547 21.516 36.766 21.438 44.5 Z M33.188 44.359 L31.063 42.344 30.125 38.75 30.609 35.234 32.375 32.734 34.547 31.688 37.828 31.656 40.609 33.047 41.453 34.406 42.063 37 37.969 37 37.344 35.516 36.453 35.125 35.375 35.359 34.641 36.328 34.469 39.609 35.391 41.125 36.047 41.328 36.984 41.172 37.984 39.266 42.063 39.266 41.406 41.672 40.156 43.469 38.516 44.5 36.125 44.938 Z M50.063 40.984 L50.844 39.891 51.031 37.5 50.563 36.031 49.734 35.344 48.516 35.281 47.578 35.781 47.109 36.594 46.906 38.656 47.344 40.297 48.031 41.031 49.047 41.281 Z"/>
</svg>
