<?xml version="1.0" encoding="UTF-8"?>
<svg width="72px" height="72px" viewBox="0 0 72 72" xmlns="http://www.w3.org/2000/svg" version="1.1">
    <path fill="#000000" fill-opacity="1" stroke="none"
          d="M21 56 C9.954 56 1 47.046 1 36 1 24.955 9.954 16 21 16 L51 16 C62.045 16 71 24.955 71 36 71 47.046 62.045 56 51 56 L21 56 Z M38.191 44.408 C40.075 44.408 41.495 43.738 42.455 42.398 43.057 41.568 43.393 40.689 43.465 39.758 L40.34 39.758 C40.275 40.374 40.092 40.875 39.791 41.262 39.49 41.649 38.982 41.84 38.266 41.84 37.256 41.84 36.568 41.353 36.203 40.379 36.003 39.856 35.902 39.166 35.902 38.307 35.902 37.404 36.003 36.681 36.203 36.137 36.583 35.113 37.289 34.602 38.32 34.602 39.043 34.602 39.576 34.836 39.92 35.309 40.156 35.66 40.302 36.056 40.359 36.492 L43.496 36.492 C43.324 34.824 42.772 33.659 41.838 33 40.903 32.341 39.702 32.012 38.234 32.012 36.508 32.012 35.153 32.57 34.172 33.688 33.191 34.805 32.701 36.371 32.701 38.383 32.701 40.166 33.145 41.615 34.033 42.732 34.921 43.85 36.308 44.408 38.191 44.408 Z M19.949 44 L23 44 23 37.662 C23 36.66 23.21 35.888 23.629 35.348 24.048 34.807 24.663 34.535 25.473 34.535 26.253 34.535 26.783 34.807 27.063 35.352 27.277 35.738 27.383 36.249 27.383 36.879 L27.383 44 30.51 44 30.51 37.125 C30.51 36.08 30.474 35.325 30.402 34.863 30.331 34.401 30.135 33.953 29.813 33.516 29.433 33 28.946 32.618 28.355 32.367 27.765 32.117 27.108 31.99 26.385 31.99 25.74 31.99 25.126 32.124 24.543 32.393 23.959 32.661 23.444 33.136 23 33.816 L23 28.219 19.949 28.219 19.949 44 Z M46.107 44 L49.158 44 49.158 34.559 51.168 34.559 51.168 32.398 49.158 32.398 C49.158 31.969 49.158 31.639 49.158 31.41 49.158 31.181 49.235 30.971 49.389 30.781 49.542 30.592 49.822 30.503 50.227 30.514 50.631 30.525 50.92 30.541 51.092 30.563 L51.092 28.07 C50.82 28.049 50.605 28.032 50.447 28.021 50.29 28.011 50.115 28.004 49.922 28.004 48.224 28.004 47.153 28.357 46.709 29.059 46.286 29.531 46.074 30.393 46.074 31.646 L46.074 32.398 44.398 32.398 44.398 34.559 46.107 34.559 46.107 44 Z"/>

    <path stroke="#000000" stroke-opacity="1" stroke-linecap="round" fill="none" stroke-width="1"
          d="M19.469 16.563 L14.797 17.516 9.641 20.156 7.531 21.891 5.141 24.672 2.5 29.828 1.797 32.547 1.5 36 1.797 39.5 2.5 42.188 5.141 47.359 7.531 50.125 9.641 51.859 14.797 54.5 17.531 55.203 21.047 55.5 52.516 55.453 57.188 54.5 62.344 51.859 65.094 49.469 67.453 46.469 69.125 43.203 70.188 39.484 70.203 39.422 70.203 39.406 70.484 35.547 69.984 31.547 68.797 28.031 66.906 24.75 63.719 21.25 60.656 19.063 56.375 17.266 52.438 16.563 Z M45.594 44.5 L45.594 35.063 43.891 35.063 43.891 31.906 45.609 31.906 45.828 29.563 47.016 28.078 49.25 27.516 51.578 27.594 51.578 31.047 49.859 31.109 49.656 31.406 49.656 31.906 51.656 31.906 51.656 35.063 49.656 35.063 49.656 44.5 Z M19.438 44.5 L19.438 27.719 23.5 27.719 23.5 32.609 24.063 32.047 26.641 31.484 28.813 32.016 30.578 33.781 31 36.344 31 44.5 26.875 44.5 26.828 36.359 26.297 35.281 25.484 35.063 24.156 35.547 23.578 36.766 23.5 44.5 Z M35.234 44.359 L33.125 42.344 32.188 38.75 32.672 35.234 34.422 32.734 36.609 31.688 39.875 31.656 42.656 33.047 43.516 34.391 44.109 37 40.031 37 39.406 35.516 38.516 35.125 37.422 35.359 36.703 36.297 36.516 39.625 37.422 41.125 38.109 41.328 39.031 41.172 40.031 39.266 44.094 39.266 43.484 41.672 42.219 43.469 40.578 44.5 38.188 44.938 Z"/>
</svg>
