<?xml version="1.0" encoding="UTF-8"?>
<svg width="72px" height="72px" viewBox="0 0 72 72" xmlns="http://www.w3.org/2000/svg" version="1.1">
    <path fill="#000000" fill-opacity="1" stroke="none"
          d="M21 56 C9.954 56 1 47.046 1 36 1 24.955 9.954 16 21 16 L51 16 C62.045 16 71 24.955 71 36 71 47.046 62.045 56 51 56 L21 56 Z M31.691 42.408 C33.704 42.408 35.205 41.797 36.193 40.576 37.182 39.355 37.676 37.887 37.676 36.168 37.676 34.478 37.182 33.012 36.193 31.773 35.205 30.535 33.704 29.914 31.691 29.914 29.679 29.914 28.18 30.535 27.191 31.773 26.203 33.012 25.709 34.478 25.709 36.168 25.709 37.887 26.203 39.355 27.191 40.576 28.18 41.797 29.679 42.408 31.691 42.408 Z M39.836 42 L42.918 42 42.918 36.402 C42.918 35.464 43.037 34.772 43.273 34.32 43.696 33.518 44.522 33.117 45.754 33.117 45.847 33.117 45.969 33.12 46.119 33.127 46.269 33.134 46.441 33.149 46.635 33.17 L46.635 30.033 C46.499 30.026 46.41 30.021 46.371 30.018 46.332 30.014 46.284 30.012 46.227 30.012 45.31 30.012 44.565 30.251 43.992 30.73 43.641 31.017 43.23 31.552 42.758 32.332 L42.758 30.291 39.836 30.291 39.836 42 Z M31.682 39.84 C30.786 39.84 30.097 39.522 29.613 38.885 29.13 38.248 28.889 37.343 28.889 36.168 28.889 34.994 29.13 34.089 29.613 33.455 30.097 32.821 30.786 32.504 31.682 32.504 32.577 32.504 33.264 32.821 33.744 33.455 34.224 34.089 34.465 34.994 34.465 36.168 34.465 37.343 34.224 38.248 33.744 38.885 33.264 39.522 32.577 39.84 31.682 39.84 Z"/>

    <path stroke="#000000" stroke-opacity="1" stroke-linecap="round" fill="none" stroke-width="1"
          d="M19.469 16.563 L14.797 17.516 9.641 20.156 7.531 21.891 5.141 24.672 2.5 29.828 1.797 32.547 1.5 36 1.797 39.5 2.5 42.188 5.141 47.359 7.531 50.125 9.641 51.859 14.797 54.5 17.531 55.203 21.047 55.5 52.516 55.453 57.188 54.5 62.344 51.859 65.094 49.469 67.453 46.469 69.125 43.203 70.188 39.484 70.203 39.422 70.203 39.406 70.484 35.547 69.984 31.547 68.797 28.031 66.906 24.75 63.719 21.25 60.656 19.063 56.375 17.266 52.438 16.563 Z M39.328 42.5 L39.328 29.797 43.25 29.797 43.25 30.938 43.922 30.109 47.125 29.422 47.125 33.625 44.578 33.844 43.688 34.719 43.391 42.5 Z M28.531 42.313 L26.234 40.156 25.234 37.172 25.688 33.344 27.453 30.75 29.828 29.594 33.531 29.594 35.891 30.734 37.125 32.25 38.031 34.547 38.125 37.172 37.672 39.031 36.766 40.672 35.391 41.969 33.547 42.719 31.672 42.922 Z M32.813 39.047 L33.688 37.875 33.844 35.063 33.156 33.578 32.453 33.141 30.891 33.141 30.156 33.594 29.641 34.438 29.391 36.172 29.641 37.891 30.516 39.031 31.672 39.328 Z"/>
</svg>
