<?xml version="1.0" encoding="UTF-8"?>
<svg width="72px" height="72px" viewBox="0 0 72 72" xmlns="http://www.w3.org/2000/svg" version="1.1">
    <path fill="#000000" fill-opacity="1" stroke="none"
          d="M21 56 C9.954 56 1 47.046 1 36 1 24.955 9.954 16 21 16 L51 16 C62.045 16 71 24.955 71 36 71 47.046 62.045 56 51 56 L21 56 Z M25.424 46.641 L28.453 46.641 28.453 30.313 25.5 30.313 25.5 32.053 C25.135 31.43 24.776 30.983 24.426 30.711 23.824 30.231 23.036 29.99 22.063 29.99 20.659 29.99 19.479 30.575 18.523 31.742 17.567 32.91 17.088 34.466 17.088 36.414 17.088 38.219 17.565 39.661 18.518 40.742 19.47 41.824 20.623 42.365 21.977 42.365 22.936 42.365 23.693 42.181 24.248 41.813 24.803 41.444 25.195 41.024 25.424 40.551 L25.424 46.641 Z M36.135 42.408 C38.018 42.408 39.439 41.738 40.398 40.398 41 39.568 41.337 38.689 41.408 37.758 L38.283 37.758 C38.219 38.374 38.035 38.875 37.734 39.262 37.433 39.649 36.925 39.84 36.209 39.84 35.199 39.84 34.512 39.353 34.146 38.379 33.946 37.856 33.846 37.166 33.846 36.307 33.846 35.404 33.946 34.681 34.146 34.137 34.526 33.113 35.232 32.602 36.264 32.602 36.987 32.602 37.519 32.836 37.863 33.309 38.099 33.66 38.247 34.056 38.305 34.492 L41.441 34.492 C41.269 32.824 40.716 31.659 39.781 31 38.847 30.341 37.646 30.012 36.178 30.012 34.452 30.012 33.098 30.57 32.117 31.688 31.136 32.805 30.645 34.371 30.645 36.383 30.645 38.166 31.089 39.615 31.977 40.732 32.864 41.85 34.251 42.408 36.135 42.408 Z M49.906 42.313 C51.446 42.313 52.644 41.714 53.504 40.518 54.363 39.322 54.793 37.815 54.793 35.996 54.793 34.242 54.358 32.809 53.488 31.699 52.618 30.589 51.413 30.033 49.873 30.033 49.021 30.033 48.319 30.212 47.768 30.57 47.302 30.857 46.877 31.272 46.49 31.816 L46.49 26.188 43.439 26.188 43.439 42 46.436 42 46.436 40.527 C46.844 41.1 47.223 41.501 47.574 41.73 48.161 42.117 48.939 42.313 49.906 42.313 Z M49.09 39.787 C48.18 39.787 47.502 39.458 47.059 38.799 46.615 38.14 46.393 37.309 46.393 36.307 46.393 35.455 46.5 34.76 46.715 34.223 47.13 33.213 47.894 32.707 49.004 32.707 50.099 32.707 50.851 33.223 51.26 34.254 51.474 34.798 51.582 35.486 51.582 36.316 51.582 37.355 51.362 38.195 50.926 38.832 50.489 39.469 49.877 39.787 49.09 39.787 Z M22.836 39.744 C21.747 39.744 21.002 39.255 20.602 38.273 20.387 37.758 20.279 37.094 20.279 36.285 20.279 35.075 20.513 34.173 20.982 33.578 21.451 32.984 22.072 32.688 22.846 32.688 23.941 32.688 24.708 33.194 25.145 34.211 25.388 34.777 25.51 35.419 25.51 36.135 25.51 37.044 25.366 37.796 25.08 38.391 24.636 39.293 23.889 39.744 22.836 39.744 Z"/>

    <path stroke="#000000" stroke-opacity="1" stroke-linecap="round" fill="none" stroke-width="1"
          d="M19.469 16.563 L14.797 17.516 9.641 20.156 7.531 21.891 5.141 24.672 2.5 29.828 1.797 32.547 1.5 36 1.797 39.5 2.5 42.188 5.141 47.359 7.531 50.125 9.641 51.859 14.797 54.5 17.531 55.203 21.047 55.5 52.516 55.453 57.188 54.5 62.344 51.859 65.094 49.469 67.453 46.469 69.125 43.203 70.188 39.484 70.203 39.422 70.203 39.406 70.484 35.547 69.984 31.547 68.797 28.031 66.906 24.75 63.719 21.25 60.656 19.063 56.375 17.266 52.438 16.563 Z M47.547 42.328 L46.922 41.719 46.922 42.5 42.938 42.5 42.938 25.688 46.984 25.688 46.984 30.688 47.734 30 49.859 29.531 52.375 30.109 54.078 31.641 55.25 34.984 54.859 38.953 52.906 41.891 49.938 42.828 Z M24.922 47.141 L24.922 41.891 24.734 42.109 23.078 42.797 21.141 42.813 19.172 42.031 17.594 40.391 16.859 38.688 16.719 34.609 17.922 31.656 20.125 29.859 22.063 29.484 23.906 29.813 25 30.875 25 29.813 28.953 29.813 28.953 47.141 Z M33.188 42.359 L31.063 40.344 30.125 36.75 30.609 33.234 32.375 30.734 34.547 29.688 37.828 29.656 40.609 31.047 41.453 32.406 42.063 35 37.969 35 37.344 33.516 36.453 33.125 35.375 33.359 34.641 34.328 34.469 37.609 35.391 39.125 36.047 39.328 36.984 39.172 37.984 37.266 42.063 37.266 41.406 39.672 40.156 41.469 38.516 42.5 36.125 42.938 Z M24.188 38.719 L24.922 37.031 24.734 34.625 23.797 33.422 22.859 33.203 21.828 33.484 21.25 34.078 20.875 35.125 21.156 38.25 21.875 39.031 22.797 39.234 Z M50.063 38.984 L50.844 37.891 51.016 35.516 50.344 33.75 49.766 33.359 48.516 33.281 47.578 33.781 47.109 34.609 46.906 36.656 47.344 38.297 48.031 39.031 49.047 39.281 Z"/>
</svg>
