<?xml version="1.0" encoding="UTF-8"?>
<svg width="72px" height="72px" viewBox="0 0 72 72" xmlns="http://www.w3.org/2000/svg" version="1.1">
    <path fill="#000000" fill-opacity="1" stroke="none"
          d="M21 56 C9.954 56 1 47.046 1 36 1 24.955 9.954 16 21 16 L51 16 C62.045 16 71 24.955 71 36 71 47.046 62.045 56 51 56 L21 56 Z M28.48 46.641 L31.51 46.641 31.51 30.313 28.555 30.313 28.555 32.053 C28.189 31.43 27.831 30.983 27.48 30.711 26.879 30.231 26.091 29.99 25.117 29.99 23.714 29.99 22.534 30.575 21.578 31.742 20.622 32.91 20.145 34.466 20.145 36.414 20.145 38.219 20.622 39.661 21.574 40.742 22.526 41.824 23.678 42.365 25.031 42.365 25.991 42.365 26.75 42.181 27.305 41.813 27.859 41.444 28.251 41.024 28.48 40.551 L28.48 46.641 Z M39.191 42.408 C41.075 42.408 42.495 41.738 43.455 40.398 44.057 39.568 44.393 38.689 44.465 37.758 L41.34 37.758 C41.275 38.374 41.092 38.875 40.791 39.262 40.49 39.649 39.982 39.84 39.266 39.84 38.256 39.84 37.568 39.353 37.203 38.379 37.003 37.856 36.902 37.166 36.902 36.307 36.902 35.404 37.003 34.681 37.203 34.137 37.583 33.113 38.289 32.602 39.32 32.602 40.043 32.602 40.576 32.836 40.92 33.309 41.156 33.66 41.302 34.056 41.359 34.492 L44.496 34.492 C44.324 32.824 43.772 31.659 42.838 31 41.903 30.341 40.702 30.012 39.234 30.012 37.508 30.012 36.153 30.57 35.172 31.688 34.191 32.805 33.701 34.371 33.701 36.383 33.701 38.166 34.145 39.615 35.033 40.732 35.921 41.85 37.308 42.408 39.191 42.408 Z M47.107 42 L50.158 42 50.158 32.559 52.168 32.559 52.168 30.398 50.158 30.398 C50.158 29.969 50.158 29.639 50.158 29.41 50.158 29.181 50.235 28.971 50.389 28.781 50.542 28.592 50.822 28.503 51.227 28.514 51.631 28.525 51.92 28.541 52.092 28.563 L52.092 26.07 C51.82 26.049 51.605 26.032 51.447 26.021 51.29 26.011 51.115 26.004 50.922 26.004 49.224 26.004 48.153 26.357 47.709 27.059 47.286 27.531 47.074 28.393 47.074 29.646 L47.074 30.398 45.398 30.398 45.398 32.559 47.107 32.559 47.107 42 Z M25.891 39.744 C24.802 39.744 24.057 39.255 23.656 38.273 23.441 37.758 23.336 37.094 23.336 36.285 23.336 35.075 23.57 34.173 24.039 33.578 24.508 32.984 25.129 32.688 25.902 32.688 26.998 32.688 27.764 33.194 28.201 34.211 28.444 34.777 28.566 35.419 28.566 36.135 28.566 37.044 28.423 37.796 28.137 38.391 27.693 39.293 26.943 39.744 25.891 39.744 Z"/>

    <path stroke="#000000" stroke-opacity="1" stroke-linecap="round" fill="none" stroke-width="1"
          d="M19.469 16.563 L14.797 17.516 9.641 20.156 7.531 21.891 5.141 24.672 2.5 29.828 1.797 32.563 1.5 36 1.797 39.5 2.5 42.188 5.141 47.359 7.531 50.125 9.641 51.859 14.797 54.5 17.531 55.203 21.047 55.5 52.516 55.453 57.188 54.5 62.344 51.859 65.094 49.469 67.453 46.469 69.125 43.203 70.188 39.469 70.203 39.422 70.203 39.406 70.484 35.547 69.984 31.547 68.797 28.031 66.906 24.75 63.719 21.25 60.656 19.063 56.375 17.266 52.438 16.563 Z M46.594 42.5 L46.594 33.063 44.891 33.063 44.891 29.906 46.609 29.906 46.828 27.563 48.016 26.078 50.25 25.516 52.578 25.594 52.578 29.047 50.859 29.109 50.656 29.406 50.656 29.906 52.656 29.906 52.656 33.063 50.656 33.063 50.656 42.5 Z M27.969 47.141 L27.969 41.906 27.797 42.109 26.109 42.797 24.188 42.813 22.234 42.031 20.656 40.391 19.906 38.688 19.781 34.609 20.969 31.656 23.172 29.859 25.109 29.484 26.953 29.813 28.047 30.875 28.047 29.813 32 29.813 32 47.141 Z M36.234 42.359 L34.125 40.344 33.188 36.75 33.672 33.234 35.422 30.734 37.609 29.688 40.875 29.656 43.656 31.047 44.516 32.391 45.109 35 41.031 35 40.406 33.516 39.516 33.125 38.422 33.359 37.703 34.297 37.516 37.625 38.422 39.125 39.109 39.328 40.031 39.172 41.031 37.266 45.094 37.266 44.484 39.672 43.219 41.469 41.578 42.5 39.188 42.938 Z M27.063 38.891 L27.891 37.531 27.922 35.031 27.078 33.563 26.391 33.25 25.266 33.313 24.438 33.906 23.938 35.141 24.203 38.266 24.922 39.016 25.859 39.234 Z"/>
</svg>
