<?xml version="1.0" encoding="UTF-8"?>
<svg width="72px" height="72px" viewBox="0 0 72 72" xmlns="http://www.w3.org/2000/svg" version="1.1">
    <path fill="#000000" fill-opacity="1" stroke="none"
          d="M21 56 C9.954 56 1 47.046 1 36 1 24.955 9.954 16 21 16 L51 16 C62.045 16 71 24.955 71 36 71 47.046 62.045 56 51 56 L21 56 Z M28.879 44.408 C30.898 44.408 32.46 43.931 33.566 42.975 34.673 42.019 35.227 40.818 35.227 39.371 35.227 37.96 34.754 36.882 33.809 36.137 33.2 35.657 32.297 35.275 31.102 34.988 L28.373 34.332 C27.32 34.082 26.633 33.862 26.311 33.676 25.809 33.397 25.559 32.976 25.559 32.41 25.559 31.794 25.812 31.313 26.32 30.969 26.829 30.625 27.511 30.453 28.363 30.453 29.129 30.453 29.769 30.587 30.285 30.852 31.058 31.253 31.474 31.931 31.531 32.883 L34.711 32.883 C34.654 31.2 34.035 29.916 32.857 29.031 31.679 28.147 30.256 27.703 28.588 27.703 26.59 27.703 25.074 28.173 24.043 29.111 23.012 30.05 22.496 31.227 22.496 32.645 22.496 34.199 23.031 35.342 24.098 36.072 24.728 36.509 25.866 36.913 27.514 37.285 L29.189 37.662 C30.17 37.877 30.889 38.123 31.348 38.402 31.806 38.689 32.035 39.095 32.035 39.617 32.035 40.512 31.574 41.124 30.65 41.453 30.163 41.625 29.53 41.711 28.75 41.711 27.447 41.711 26.525 41.386 25.988 40.734 25.695 40.376 25.499 39.837 25.398 39.113 L22.238 39.113 C22.238 40.76 22.83 42.055 24.012 42.996 25.193 43.938 26.816 44.408 28.879 44.408 Z M43.551 44.408 C45.57 44.408 47.134 43.931 48.24 42.975 49.347 42.019 49.9 40.818 49.9 39.371 49.9 37.96 49.428 36.882 48.482 36.137 47.874 35.657 46.971 35.275 45.775 34.988 L43.047 34.332 C41.994 34.082 41.307 33.862 40.984 33.676 40.483 33.397 40.232 32.976 40.232 32.41 40.232 31.794 40.488 31.313 40.996 30.969 41.504 30.625 42.183 30.453 43.035 30.453 43.801 30.453 44.443 30.587 44.959 30.852 45.732 31.253 46.148 31.931 46.205 32.883 L49.385 32.883 C49.327 31.2 48.709 29.916 47.531 29.031 46.353 28.147 44.93 27.703 43.262 27.703 41.264 27.703 39.75 28.173 38.719 29.111 37.687 30.05 37.172 31.227 37.172 32.645 37.172 34.199 37.704 35.342 38.771 36.072 39.401 36.509 40.54 36.913 42.188 37.285 L43.863 37.662 C44.844 37.877 45.565 38.123 46.023 38.402 46.482 38.689 46.711 39.095 46.711 39.617 46.711 40.512 46.248 41.124 45.324 41.453 44.837 41.625 44.202 41.711 43.422 41.711 42.118 41.711 41.199 41.386 40.662 40.734 40.368 40.376 40.17 39.837 40.07 39.113 L36.914 39.113 C36.914 40.76 37.504 42.055 38.686 42.996 39.867 43.938 41.488 44.408 43.551 44.408 Z"/>

    <path stroke="#000000" stroke-opacity="1" stroke-linecap="round" fill="none" stroke-width="1"
          d="M19.469 16.563 L14.797 17.516 9.641 20.156 7.531 21.891 5.141 24.672 2.5 29.828 1.797 32.547 1.5 36 1.797 39.5 2.5 42.188 5.141 47.359 7.531 50.125 9.641 51.859 14.797 54.5 17.531 55.203 21.047 55.5 52.516 55.453 57.188 54.5 62.344 51.859 65.094 49.469 67.453 46.469 69.125 43.203 70.188 39.469 70.203 39.422 70.203 39.406 70.484 35.547 69.984 31.547 68.797 28.031 66.906 24.75 63.719 21.25 60.656 19.063 56.375 17.266 52.438 16.563 Z M25.656 44.453 L23.672 43.391 22.094 41.281 21.641 38.625 25.703 38.625 26.688 40.656 28.75 41.203 31.063 40.641 31.484 39.969 31.453 39.328 30.484 38.563 25.688 37.328 23.547 36.328 22.141 34.125 22.141 31.25 23.484 28.922 26.094 27.484 30.172 27.344 33.156 28.625 34.781 30.688 35.313 33.391 31.188 33.391 30.5 31.672 29.094 31.016 27.156 31.141 26.156 32 26.156 32.828 26.406 33.141 33.234 35.188 34.672 36.266 35.578 38.031 35.563 40.813 34.125 43.156 32.016 44.453 28.875 44.922 Z M40.328 44.453 L38.344 43.391 36.781 41.281 36.313 38.625 40.375 38.625 41.359 40.656 43.422 41.203 45.734 40.641 46.156 39.969 46.125 39.328 45.156 38.563 40.359 37.328 38.219 36.328 36.813 34.125 36.813 31.234 38.578 28.547 41.422 27.344 45.438 27.469 48.484 29.203 49.453 30.719 49.984 33.391 45.859 33.391 45.172 31.672 43.766 31.016 41.828 31.141 40.828 32 40.828 32.828 41.078 33.141 47.906 35.188 49.344 36.266 50.25 38.031 50.234 40.813 48.797 43.156 46.688 44.453 43.547 44.922 Z"/>
</svg>
