<?xml version="1.0" encoding="UTF-8"?>
<svg width="72px" height="72px" viewBox="0 0 72 72" xmlns="http://www.w3.org/2000/svg" version="1.1">
    <path fill="#000000" fill-opacity="1" stroke="none"
          d="M21 56 C9.954 56 1 47.046 1 36 1 24.955 9.954 16 21 16 L51 16 C62.045 16 71 24.955 71 36 71 47.046 62.045 56 51 56 L21 56 Z M22.158 44.408 C24.178 44.408 25.741 43.931 26.848 42.975 27.954 42.019 28.508 40.818 28.508 39.371 28.508 37.96 28.035 36.882 27.09 36.137 26.481 35.657 25.579 35.275 24.383 34.988 L21.654 34.332 C20.601 34.082 19.914 33.862 19.592 33.676 19.09 33.397 18.84 32.976 18.84 32.41 18.84 31.794 19.093 31.313 19.602 30.969 20.11 30.625 20.79 30.453 21.643 30.453 22.409 30.453 23.051 30.587 23.566 30.852 24.34 31.253 24.755 31.931 24.813 32.883 L27.992 32.883 C27.935 31.2 27.317 29.916 26.139 29.031 24.961 28.147 23.538 27.703 21.869 27.703 19.871 27.703 18.355 28.173 17.324 29.111 16.293 30.05 15.777 31.227 15.777 32.645 15.777 34.199 16.312 35.342 17.379 36.072 18.009 36.509 19.148 36.913 20.795 37.285 L22.471 37.662 C23.452 37.877 24.171 38.123 24.629 38.402 25.087 38.689 25.316 39.095 25.316 39.617 25.316 40.512 24.855 41.124 23.932 41.453 23.445 41.625 22.81 41.711 22.029 41.711 20.726 41.711 19.807 41.386 19.27 40.734 18.976 40.376 18.778 39.837 18.678 39.113 L15.52 39.113 C15.52 40.76 16.111 42.055 17.293 42.996 18.474 43.938 20.096 44.408 22.158 44.408 Z M36.832 44.408 C38.851 44.408 40.415 43.931 41.521 42.975 42.628 42.019 43.182 40.818 43.182 39.371 43.182 37.96 42.709 36.882 41.764 36.137 41.155 35.657 40.252 35.275 39.057 34.988 L36.328 34.332 C35.275 34.082 34.588 33.862 34.266 33.676 33.764 33.397 33.514 32.976 33.514 32.41 33.514 31.794 33.767 31.313 34.275 30.969 34.784 30.625 35.464 30.453 36.316 30.453 37.083 30.453 37.724 30.587 38.24 30.852 39.014 31.253 39.429 31.931 39.486 32.883 L42.666 32.883 C42.609 31.2 41.99 29.916 40.813 29.031 39.634 28.147 38.211 27.703 36.543 27.703 34.545 27.703 33.029 28.173 31.998 29.111 30.967 30.05 30.451 31.227 30.451 32.645 30.451 34.199 30.986 35.342 32.053 36.072 32.683 36.509 33.822 36.913 35.469 37.285 L37.145 37.662 C38.125 37.877 38.844 38.123 39.303 38.402 39.761 38.689 39.99 39.095 39.99 39.617 39.99 40.512 39.529 41.124 38.605 41.453 38.118 41.625 37.484 41.711 36.703 41.711 35.4 41.711 34.48 41.386 33.943 40.734 33.65 40.376 33.452 39.837 33.352 39.113 L30.193 39.113 C30.193 40.76 30.785 42.055 31.967 42.996 33.148 43.938 34.769 44.408 36.832 44.408 Z M45.631 44 L56.781 44 56.781 41.152 48.939 41.152 48.939 28.166 45.631 28.166 45.631 44 Z"/>

    <path stroke="#000000" stroke-opacity="1" stroke-linecap="round" fill="none" stroke-width="1"
          d="M19.469 16.563 L14.797 17.516 9.641 20.156 7.531 21.891 5.141 24.672 2.5 29.828 1.797 32.547 1.5 36 1.797 39.5 2.5 42.188 5.141 47.359 7.531 50.125 9.641 51.859 14.797 54.5 17.531 55.203 21.047 55.5 52.516 55.453 57.188 54.5 62.344 51.859 65.094 49.469 67.453 46.469 69.125 43.203 70.188 39.469 70.203 39.422 70.203 39.406 70.484 35.547 69.984 31.547 68.797 28.031 66.906 24.75 63.719 21.25 60.656 19.063 56.375 17.266 52.438 16.563 Z M18.938 44.453 L16.953 43.391 15.375 41.281 14.922 38.625 18.984 38.625 19.969 40.656 22.016 41.203 24.344 40.641 24.766 39.969 24.734 39.328 23.766 38.563 18.969 37.328 16.828 36.328 15.422 34.125 15.422 31.25 16.766 28.922 19.375 27.5 22.844 27.25 25.703 28.156 27.813 30.156 28.625 33.391 24.5 33.391 23.594 31.531 21.859 30.984 20.094 31.313 19.359 32.328 19.422 32.766 19.953 33.297 27.109 35.531 28.25 36.656 28.859 38.047 28.844 40.813 27.406 43.156 25.297 44.453 22.156 44.922 Z M33.609 44.453 L31.625 43.391 30.047 41.281 29.594 38.625 33.656 38.625 34.641 40.656 36.703 41.203 39.016 40.641 39.438 39.969 39.406 39.328 38.438 38.563 33.641 37.328 31.5 36.328 30.094 34.125 30.094 31.234 31.859 28.547 34.703 27.344 38.719 27.469 41.766 29.203 42.734 30.719 43.266 33.391 39.141 33.391 38.453 31.672 37.047 31.016 35.109 31.141 34.109 32 34.109 32.828 34.359 33.141 41.188 35.188 42.625 36.266 43.531 38.031 43.516 40.813 42.078 43.156 39.969 44.453 36.828 44.922 Z M45.125 44.5 L45.125 27.672 49.438 27.672 49.438 40.656 57.281 40.656 57.281 44.5 Z"/>
</svg>
