<?xml version="1.0" encoding="UTF-8"?>
<svg width="72px" height="72px" viewBox="0 0 72 72" xmlns="http://www.w3.org/2000/svg" version="1.1">
    <path fill="#000000" fill-opacity="1" stroke="none"
          d="M21 56 C9.954 56 1 47.046 1 36 1 24.955 9.954 16 21 16 L51 16 C62.045 16 71 24.955 71 36 71 47.046 62.045 56 51 56 L21 56 Z M20.934 44.408 C22.953 44.408 24.516 43.931 25.623 42.975 26.729 42.019 27.283 40.818 27.283 39.371 27.283 37.96 26.81 36.882 25.865 36.137 25.256 35.657 24.354 35.275 23.158 34.988 L20.43 34.332 C19.377 34.082 18.689 33.862 18.367 33.676 17.866 33.397 17.615 32.976 17.615 32.41 17.615 31.794 17.868 31.313 18.377 30.969 18.885 30.625 19.566 30.453 20.418 30.453 21.184 30.453 21.826 30.587 22.342 30.852 23.115 31.253 23.531 31.931 23.588 32.883 L26.768 32.883 C26.71 31.2 26.092 29.916 24.914 29.031 23.736 28.147 22.313 27.703 20.645 27.703 18.646 27.703 17.131 28.173 16.1 29.111 15.068 30.05 14.553 31.227 14.553 32.645 14.553 34.199 15.087 35.342 16.154 36.072 16.784 36.509 17.923 36.913 19.57 37.285 L21.246 37.662 C22.227 37.877 22.946 38.123 23.404 38.402 23.862 38.689 24.092 39.095 24.092 39.617 24.092 40.512 23.631 41.124 22.707 41.453 22.22 41.625 21.585 41.711 20.805 41.711 19.501 41.711 18.582 41.386 18.045 40.734 17.751 40.376 17.553 39.837 17.453 39.113 L14.295 39.113 C14.295 40.76 14.887 42.055 16.068 42.996 17.25 43.938 18.871 44.408 20.934 44.408 Z M35.607 44.408 C37.627 44.408 39.19 43.931 40.297 42.975 41.403 42.019 41.957 40.818 41.957 39.371 41.957 37.96 41.484 36.882 40.539 36.137 39.93 35.657 39.028 35.275 37.832 34.988 L35.104 34.332 C34.051 34.082 33.363 33.862 33.041 33.676 32.54 33.397 32.289 32.976 32.289 32.41 32.289 31.794 32.542 31.313 33.051 30.969 33.559 30.625 34.24 30.453 35.092 30.453 35.858 30.453 36.5 30.587 37.016 30.852 37.789 31.253 38.204 31.931 38.262 32.883 L41.441 32.883 C41.384 31.2 40.766 29.916 39.588 29.031 38.41 28.147 36.987 27.703 35.318 27.703 33.32 27.703 31.805 28.173 30.773 29.111 29.742 30.05 29.227 31.227 29.227 32.645 29.227 34.199 29.761 35.342 30.828 36.072 31.458 36.509 32.597 36.913 34.244 37.285 L35.92 37.662 C36.901 37.877 37.62 38.123 38.078 38.402 38.536 38.689 38.766 39.095 38.766 39.617 38.766 40.512 38.305 41.124 37.381 41.453 36.894 41.625 36.259 41.711 35.479 41.711 34.175 41.711 33.256 41.386 32.719 40.734 32.425 40.376 32.227 39.837 32.127 39.113 L28.969 39.113 C28.969 40.76 29.56 42.055 30.742 42.996 31.924 43.938 33.545 44.408 35.607 44.408 Z M44.48 44 L47.715 44 47.715 37.791 51.131 37.791 C52.105 37.791 52.768 37.96 53.123 38.297 53.477 38.634 53.661 39.307 53.676 40.316 L53.697 41.787 C53.704 42.253 53.752 42.708 53.838 43.152 53.881 43.367 53.952 43.649 54.053 44 L57.693 44 57.693 43.602 C57.378 43.408 57.178 43.108 57.092 42.699 57.034 42.442 57.006 41.952 57.006 41.229 L57.006 40.164 C57.006 39.054 56.855 38.23 56.551 37.689 56.246 37.149 55.728 36.731 54.998 36.438 55.872 36.137 56.497 35.623 56.877 34.896 57.256 34.17 57.447 33.43 57.447 32.678 57.447 32.055 57.347 31.499 57.146 31.012 56.946 30.525 56.674 30.081 56.33 29.68 55.915 29.193 55.406 28.825 54.809 28.574 54.211 28.324 53.358 28.188 52.248 28.166 L44.48 28.166 44.48 44 Z M47.715 35.17 L47.715 30.916 51.561 30.916 C52.276 30.916 52.814 31.009 53.172 31.195 53.809 31.525 54.127 32.169 54.127 33.129 54.127 34.017 53.797 34.611 53.139 34.912 52.766 35.084 52.208 35.17 51.463 35.17 L47.715 35.17 Z"/>

    <path stroke="#000000" stroke-opacity="1" stroke-linecap="round" fill="none" stroke-width="1"
          d="M19.469 16.563 L14.797 17.516 9.641 20.156 7.531 21.891 5.141 24.672 2.5 29.828 1.797 32.547 1.5 36 1.797 39.5 2.5 42.188 5.141 47.359 7.531 50.125 9.641 51.859 14.797 54.5 17.531 55.203 21.047 55.5 52.516 55.453 57.188 54.5 62.344 51.859 65.094 49.469 67.453 46.469 69.125 43.203 70.188 39.469 70.203 39.422 70.203 39.406 70.484 35.547 69.984 31.547 68.797 28.031 66.906 24.75 63.719 21.25 60.656 19.063 56.375 17.266 52.438 16.563 Z M17.703 44.453 L15.734 43.391 14.156 41.281 13.688 38.625 17.766 38.625 18.734 40.656 20.797 41.203 23.125 40.641 23.531 39.969 23.5 39.328 22.547 38.563 17.75 37.328 15.609 36.328 14.203 34.125 14.188 31.25 15.547 28.922 18.156 27.5 21.609 27.25 24.484 28.156 26.594 30.156 27.406 33.391 23.266 33.391 22.375 31.531 20.625 30.984 18.859 31.313 18.125 32.328 18.188 32.766 18.734 33.297 25.891 35.531 27.031 36.656 27.641 38.063 27.609 40.813 26.172 43.156 24.078 44.453 20.922 44.922 Z M32.375 44.453 L30.406 43.391 28.828 41.281 28.375 38.625 32.438 38.625 33.406 40.656 35.469 41.203 37.797 40.641 38.219 39.969 38.188 39.328 37.219 38.563 32.422 37.328 30.281 36.328 28.875 34.125 28.875 31.234 30.641 28.547 33.469 27.344 36.906 27.344 40.125 28.797 41.5 30.703 42.047 33.391 37.906 33.391 37.219 31.672 35.813 31.016 33.891 31.141 32.891 32 32.891 32.828 33.141 33.141 39.969 35.188 41.406 36.266 42.313 38.031 42.297 40.813 40.844 43.156 38.75 44.453 35.594 44.922 Z M43.969 44.5 L43.969 27.672 53.453 27.75 55.25 28.234 56.984 29.688 57.828 31.484 57.859 33.641 56.734 36 55.844 36.516 57.141 37.656 57.547 42.422 58.438 44.5 53.594 44.5 53.094 39.469 52.641 38.609 51.422 38.297 48.203 38.297 48.203 44.5 Z M52.969 34.375 L53.578 33.359 53.25 31.953 52.172 31.469 48.203 31.422 48.203 34.641 Z"/>
</svg>
