<?xml version="1.0" encoding="UTF-8"?>
<svg width="72px" height="72px" viewBox="0 0 72 72" xmlns="http://www.w3.org/2000/svg" version="1.1">
    <path fill="#000000" fill-opacity="1" stroke="none"
          d="M21 56 C9.954 56 1 47.046 1 36 1 24.955 9.954 16 21 16 L51 16 C62.045 16 71 24.955 71 36 71 47.046 62.045 56 51 56 L21 56 Z M22.486 44 L25.559 44 27.471 34.74 28.029 31.68 28.588 34.74 30.5 44 33.658 44 38.117 28.166 34.754 28.166 32.637 37.328 32.154 39.758 31.672 37.232 29.791 28.166 26.301 28.166 24.516 37.285 24.055 39.758 23.604 37.232 21.508 28.166 17.996 28.166 22.486 44 Z M40.189 44 L43.422 44 43.422 37.791 46.84 37.791 C47.814 37.791 48.477 37.96 48.832 38.297 49.186 38.634 49.37 39.307 49.385 40.316 L49.406 41.787 C49.413 42.253 49.461 42.708 49.547 43.152 49.59 43.367 49.661 43.649 49.762 44 L53.402 44 53.402 43.602 C53.087 43.408 52.887 43.108 52.801 42.699 52.743 42.442 52.715 41.952 52.715 41.229 L52.715 40.164 C52.715 39.054 52.562 38.23 52.258 37.689 51.953 37.149 51.437 36.731 50.707 36.438 51.581 36.137 52.206 35.623 52.586 34.896 52.965 34.17 53.156 33.43 53.156 32.678 53.156 32.055 53.056 31.499 52.855 31.012 52.655 30.525 52.383 30.081 52.039 29.68 51.624 29.193 51.115 28.825 50.518 28.574 49.92 28.324 49.067 28.188 47.957 28.166 L40.189 28.166 40.189 44 Z M43.422 35.17 L43.422 30.916 47.27 30.916 C47.985 30.916 48.521 31.009 48.879 31.195 49.516 31.525 49.836 32.169 49.836 33.129 49.836 34.017 49.506 34.611 48.848 34.912 48.475 35.084 47.917 35.17 47.172 35.17 L43.422 35.17 Z"/>

    <path stroke="#000000" stroke-opacity="1" stroke-linecap="round" fill="none" stroke-width="1"
          d="M19.469 16.563 L14.797 17.516 9.641 20.156 7.531 21.891 5.141 24.672 2.5 29.828 1.797 32.547 1.5 36 1.797 39.5 2.5 42.188 5.141 47.359 7.531 50.125 9.641 51.859 14.797 54.5 17.531 55.203 21.047 55.5 52.516 55.453 57.188 54.5 62.344 51.859 65.094 49.469 67.453 46.469 69.125 43.203 70.188 39.438 70.203 39.422 70.203 39.406 70.484 35.547 70 31.609 68.797 28.031 66.906 24.75 63.719 21.25 60.656 19.063 56.375 17.266 52.438 16.563 Z M22.109 44.5 L17.328 27.672 21.906 27.672 24.016 37.313 25.891 27.672 30.188 27.672 32.156 37.391 34.344 27.672 38.766 27.672 34.031 44.5 30.094 44.5 28.016 34.188 25.953 44.5 Z M39.688 44.5 L39.688 27.672 49.156 27.75 50.969 28.234 52.688 29.688 53.531 31.469 53.578 33.641 52.438 36 51.547 36.516 52.844 37.672 53.25 42.422 54.141 44.5 49.297 44.5 48.813 39.469 48.359 38.625 47.125 38.297 43.922 38.297 43.922 44.5 Z M48.672 34.375 L49.281 33.359 48.953 31.969 47.875 31.469 43.922 31.422 43.922 34.641 Z"/>
</svg>
